<?xml version="1.0" ?><svg id="Layer_1" style="enable-background:new 0 0 24 24;" version="1.1" viewBox="0 0 24 24" xml:space="preserve" xmlns="http://www.w3.org/2000/svg" xmlns:xlink="http://www.w3.org/1999/xlink"><style type="text/css">
	.st0{fill:#1E232D;}
</style><path class="st0" d="M6,0.7c-2.8,0-5,2.2-5,5s2.2,5,5,5s5-2.2,5-5S8.8,0.7,6,0.7z M6,8.7c-1.7,0-3-1.3-3-3s1.3-3,3-3  c1.7,0,3,1.3,3,3S7.7,8.7,6,8.7z M6,12.7c-2.8,0-5,2.2-5,5s2.2,5,5,5s5-2.2,5-5S8.8,12.7,6,12.7z M6,20.7c-1.7,0-3-1.3-3-3  c0-1.7,1.3-3,3-3c1.7,0,3,1.3,3,3C9,19.3,7.7,20.7,6,20.7z M18,10.7c2.8,0,5-2.2,5-5s-2.2-5-5-5s-5,2.2-5,5S15.2,10.7,18,10.7z   M18,2.7c1.7,0,3,1.3,3,3s-1.3,3-3,3c-1.7,0-3-1.3-3-3S16.3,2.7,18,2.7z M18,12.7c-2.8,0-5,2.2-5,5s2.2,5,5,5s5-2.2,5-5  S20.8,12.7,18,12.7z M18,20.7c-1.7,0-3-1.3-3-3c0-1.7,1.3-3,3-3c1.7,0,3,1.3,3,3C21,19.3,19.7,20.7,18,20.7z"/></svg>